Coordinates
version=1
nRows=15
nColumns=63
inDegrees=yes

Units are S.I. units (second, meters, Newtons, ...)
If the header above contains a line with 'inDegrees', this indicates whether rotational values are in degrees (yes) or radians (no).

endheader
time	pelvis_tilt	pelvis_list	pelvis_rotation	pelvis_tx	pelvis_ty	pelvis_tz	hip_flexion_r	hip_adduction_r	hip_rotation_r	knee_angle_r	knee_angle_r_beta	ankle_angle_r	subtalar_angle_r	mtp_angle_r	hip_flexion_l	hip_adduction_l	hip_rotation_l	knee_angle_l	knee_angle_l_beta	ankle_angle_l	subtalar_angle_l	mtp_angle_l	L5_S1_Flex_Ext	L5_S1_Lat_Bending	L5_S1_axial_rotation	L4_L5_Flex_Ext	L4_L5_Lat_Bending	L4_L5_axial_rotation	L3_L4_Flex_Ext	L3_L4_Lat_Bending	L3_L4_axial_rotation	L2_L3_Flex_Ext	L2_L3_Lat_Bending	L2_L3_axial_rotation	L1_L2_Flex_Ext	L1_L2_Lat_Bending	L1_L2_axial_rotation	L1_T12_Flex_Ext	L1_T12_Lat_Bending	L1_T12_axial_rotation	Abs_r3	Abs_r2	Abs_r1	Abs_t1	Abs_t2	neck_flexion	neck_bending	neck_rotation	arm_flex_r	arm_add_r	arm_rot_r	elbow_flex_r	pro_sup_r	wrist_flex_r	wrist_dev_r	arm_flex_l	arm_add_l	arm_rot_l	elbow_flex_l	pro_sup_l	wrist_flex_l	wrist_dev_l
0.000000	-0.776807	-4.174340	83.817181	0.185169	0.951132	0.486604	4.870074	2.050488	-8.549074	10.710711	0.186937	21.998034	-11.606462	0.000000	4.688246	-3.684389	6.141222	4.800623	0.083787	31.128506	9.959862	0.000000	0.123425	0.509990	-1.079423	0.229212	0.678287	-1.146887	0.202775	1.239990	-1.146887	0.141062	1.239990	-0.944495	0.114612	1.039972	-0.877031	0.070525	0.789975	-0.809567	0.881611	5.769113	-6.003427	0.000000	0.000000	26.312631	0.577248	-4.646873	13.591719	-7.216429	37.831517	42.180230	51.319946	-2.101949	15.803632	19.259291	-4.361210	50.443579	42.690770	57.880370	-6.835384	7.173195
0.016667	-0.735023	-4.136365	83.428735	0.185845	0.952310	0.486175	4.660279	2.023166	-8.106074	10.077643	0.175888	22.340266	-10.989754	0.000000	4.991171	-3.811098	3.956477	5.987884	0.104508	31.314156	11.592302	0.000000	0.114213	0.526664	-1.029314	0.212106	0.700463	-1.093646	0.187641	1.280530	-1.093646	0.130534	1.280530	-0.900650	0.106059	1.073972	-0.836317	0.065262	0.815802	-0.771985	0.815815	5.957724	-5.724735	0.000000	0.000000	26.293657	0.625244	-3.836265	13.411180	-7.348315	38.385302	41.864430	51.438351	-1.372261	16.317972	19.017863	-4.239773	50.062195	42.308050	59.568158	-6.206198	6.348816
0.033333	-0.695171	-4.101121	83.095942	0.186451	0.953237	0.485804	4.497483	2.008688	-7.737938	9.590302	0.167382	22.634034	-10.503359	0.000000	5.238435	-3.926452	2.159504	6.978272	0.121794	31.481141	12.909420	0.000000	0.107366	0.539879	-0.988156	0.199389	0.718040	-1.049916	0.176391	1.312663	-1.049916	0.122708	1.312663	-0.864637	0.099700	1.100922	-0.802877	0.061349	0.836273	-0.741117	0.766903	6.107224	-5.495828	0.000000	0.000000	26.268663	0.655954	-3.220222	13.262411	-7.470706	38.810993	41.662011	51.231522	-0.892925	16.796019	18.840013	-4.091086	49.721421	41.949291	60.946940	-5.830379	5.705477
0.050000	-0.658016	-4.068227	82.813975	0.186992	0.953935	0.485487	4.378232	2.004422	-7.441368	9.237019	0.161216	22.888163	-10.126928	0.000000	5.434462	-4.030166	0.715564	7.786715	0.135904	31.632296	13.940954	0.000000	0.102646	0.549844	-0.955045	0.190623	0.731292	-1.014736	0.168636	1.336890	-1.014736	0.117314	1.336890	-0.835665	0.095317	1.121241	-0.775974	0.058652	0.851708	-0.716284	0.733187	6.219943	-5.311676	0.000000	0.000000	26.237958	0.671529	-2.781170	13.141758	-7.584057	39.123330	41.560412	50.740844	-0.637334	17.242110	18.718992	-3.920287	49.417053	41.615428	62.057876	-5.673147	5.230344
0.066667	-0.624321	-4.037306	82.578010	0.187473	0.954427	0.485218	4.299070	2.007739	-7.213071	9.006127	0.157187	23.111476	-9.840110	0.000000	5.583675	-4.121955	-0.410081	8.428144	0.147099	31.770455	14.716637	0.000000	0.099817	0.556763	-0.929077	0.185369	0.740494	-0.987144	0.163989	1.353713	-0.987144	0.114080	1.353713	-0.812942	0.092690	1.135351	-0.754875	0.057035	0.862426	-0.696808	0.712980	6.298212	-5.167246	0.000000	0.000000	26.201855	0.674122	-2.501534	13.045569	-7.688825	39.337056	41.547076	50.007700	-0.578885	17.660582	18.648046	-3.732512	49.144889	41.307396	62.942126	-5.699723	4.910579
0.083333	-0.594850	-4.007978	82.383220	0.187900	0.954733	0.484995	4.256543	2.016006	-7.049749	8.885960	0.155089	23.312795	-9.622554	0.000000	5.690498	-4.201533	-1.252169	8.917488	0.155640	31.898452	15.266205	0.000000	0.098642	0.560842	-0.909345	0.183189	0.745920	-0.966179	0.162060	1.363632	-0.966179	0.112738	1.363632	-0.795677	0.091599	1.143670	-0.738843	0.056364	0.868745	-0.682009	0.704593	6.344361	-5.057505	0.000000	0.000000	26.160662	0.665887	-2.363741	12.970192	-7.785463	39.466910	41.609444	49.073476	-0.690973	18.055771	18.620424	-3.532897	48.900725	41.026132	63.640847	-5.875328	4.733347
0.100000	-0.570368	-3.979866	82.224779	0.188276	0.954877	0.484812	4.247195	2.026595	-6.948108	8.864850	0.154721	23.500943	-9.453910	0.000000	5.759355	-4.268615	-1.845437	9.269677	0.161786	32.019122	15.619394	0.000000	0.098887	0.562289	-0.894946	0.183643	0.747844	-0.950880	0.162461	1.367148	-0.950880	0.113018	1.367148	-0.783078	0.091826	1.146619	-0.727144	0.056504	0.870985	-0.671210	0.706338	6.360721	-4.977422	0.000000	0.000000	26.114692	0.648976	-2.350216	12.911973	-7.874428	39.527634	41.734957	47.979554	-0.946993	18.432015	18.629374	-3.326578	48.680359	40.772572	64.195200	-6.165181	4.685809
0.116667	-0.551637	-3.952591	82.097861	0.188608	0.954881	0.484666	4.267572	2.036874	-6.904852	8.931130	0.155878	23.684745	-9.313827	0.000000	5.794670	-4.322914	-2.224624	9.499641	0.165800	32.135299	15.805939	0.000000	0.100313	0.561307	-0.884975	0.186292	0.746539	-0.940286	0.164805	1.364763	-0.940286	0.114648	1.364763	-0.774353	0.093151	1.144618	-0.719042	0.057319	0.869465	-0.663731	0.716529	6.349621	-4.921963	0.000000	0.000000	26.064255	0.625541	-2.443385	12.867260	-7.956174	39.533969	41.911057	46.767320	-1.320339	18.793650	18.668145	-3.118692	48.479589	40.547650	64.646344	-6.534503	4.755130
0.133333	-0.539422	-3.925775	81.997642	0.188899	0.954768	0.484552	4.314218	2.044212	-6.916685	9.073133	0.158356	23.873023	-9.181955	0.000000	5.800867	-4.364146	-2.424467	9.622309	0.167941	32.249817	15.855576	0.000000	0.102686	0.558105	-0.878526	0.190698	0.742279	-0.933434	0.168703	1.356976	-0.933434	0.117360	1.356976	-0.768710	0.095354	1.138087	-0.713802	0.058675	0.864504	-0.658895	0.733476	6.313393	-4.886098	0.000000	0.000000	26.009661	0.597736	-2.625673	12.832401	-8.031159	39.500655	42.125185	45.478157	-1.784407	19.145013	18.729984	-2.914376	48.294210	40.352304	65.035437	-6.948515	4.928473
0.150000	-0.534487	-3.899038	81.919294	0.189155	0.954558	0.484466	4.383678	2.045979	-6.980311	9.279192	0.161952	24.074600	-9.037943	0.000000	5.782369	-4.392024	-2.479704	9.652610	0.168470	32.365511	15.798039	0.000000	0.105768	0.552887	-0.874695	0.196422	0.735340	-0.929364	0.173767	1.344289	-0.929364	0.120883	1.344289	-0.765358	0.098217	1.127447	-0.710690	0.060436	0.856422	-0.656022	0.755493	6.254367	-4.864793	0.000000	0.000000	25.951222	0.567713	-2.879506	12.803743	-8.099835	39.442435	42.364782	44.153450	-2.312593	19.490440	18.808139	-2.718766	48.120020	40.187468	65.403639	-7.372436	5.193001
0.166667	-0.537595	-3.872002	81.857992	0.189381	0.954275	0.484404	4.472498	2.039544	-7.092434	9.537638	0.166463	24.298299	-8.861442	0.000000	5.743600	-4.406263	-2.425072	9.605476	0.167647	32.485216	15.663064	0.000000	0.109324	0.545860	-0.872578	0.203026	0.725993	-0.927114	0.179609	1.327203	-0.927114	0.124947	1.327203	-0.763506	0.101518	1.113117	-0.708970	0.062468	0.845537	-0.654434	0.780891	6.174873	-4.853017	0.000000	0.000000	25.889247	0.537625	-3.187310	12.777633	-8.162660	39.374049	42.617291	42.834583	-2.878291	19.834268	18.895859	-2.536998	47.952816	40.054078	65.792109	-7.771489	5.535879
0.183333	-0.539911	-3.847433	81.792282	0.189578	0.953984	0.484353	4.579875	2.018437	-7.306982	9.816037	0.171322	24.584242	-8.499057	0.000000	5.696830	-4.420659	-2.341749	9.503318	0.165864	32.602301	15.513585	0.000000	0.111390	0.539058	-0.869041	0.206862	0.716947	-0.923356	0.183003	1.310665	-0.923356	0.127308	1.310665	-0.760411	0.103437	1.099247	-0.706096	0.063648	0.835001	-0.651781	0.795648	6.097930	-4.833346	0.000000	0.000000	25.824057	0.548512	-3.460995	12.760381	-8.236785	39.332204	42.893501	41.521030	-3.462751	20.303377	18.939365	-2.386899	47.698510	40.011916	66.461309	-8.097004	5.904741
0.200000	-0.557867	-3.823981	81.726272	0.189768	0.953686	0.484320	4.704613	1.978675	-7.573969	10.119533	0.176619	24.979448	-7.976384	0.000000	5.648599	-4.415208	-2.343875	9.366831	0.163482	32.775042	15.494551	0.000000	0.113935	0.530209	-0.864353	0.211589	0.705178	-0.918375	0.187184	1.289150	-0.918375	0.130216	1.289150	-0.756309	0.105800	1.081202	-0.702287	0.065102	0.821294	-0.648265	0.813827	5.997831	-4.807273	0.000000	0.000000	25.760992	0.557547	-3.760691	12.730195	-8.299461	39.364820	43.101605	40.472627	-3.944689	20.709482	18.964813	-2.262475	47.378415	39.981931	67.413412	-8.119234	6.359251
0.216667	-0.587810	-3.802035	81.678175	0.189930	0.953386	0.484293	4.839874	1.926971	-7.834675	10.434633	0.182119	25.444288	-7.417272	0.000000	5.586891	-4.386210	-2.256141	9.170011	0.160047	32.952299	15.406562	0.000000	0.116899	0.520002	-0.860768	0.217094	0.691603	-0.914566	0.192054	1.264334	-0.914566	0.133604	1.264334	-0.753172	0.108553	1.060389	-0.699374	0.066796	0.805484	-0.645576	0.835000	5.882370	-4.787333	0.000000	0.000000	25.704781	0.562447	-4.076395	12.669641	-8.349564	39.430631	43.267959	39.628210	-4.356052	21.117546	18.993542	-2.178649	47.111761	39.985830	68.368858	-7.987966	6.913436
0.233333	-0.642924	-3.770546	81.642951	0.190068	0.953105	0.484281	4.969701	1.834504	-8.194462	10.755651	0.187722	25.964587	-6.676667	0.000000	5.530777	-4.320281	-2.115542	8.984857	0.156815	33.152476	15.265221	0.000000	0.119136	0.507278	-0.856947	0.221247	0.674680	-0.910506	0.195728	1.233397	-0.910506	0.136160	1.233397	-0.749829	0.110630	1.034442	-0.696270	0.068074	0.785774	-0.642710	0.850976	5.738435	-4.766083	0.000000	0.000000	25.643692	0.566794	-4.355351	12.597902	-8.386701	39.555382	43.366738	39.057918	-4.645189	21.501110	19.048213	-2.142311	46.954325	39.997968	69.330221	-7.690340	7.501502
